<?xml version="1.0" standalone="no"?>
<!DOCTYPE svg PUBLIC "-//W3C//DTD SVG 20010904//EN"
 "http://www.w3.org/TR/2001/REC-SVG-20010904/DTD/svg10.dtd">
<svg version="1.0" xmlns="http://www.w3.org/2000/svg"
 width="512.000000pt" height="512.000000pt" viewBox="0 0 512.000000 512.000000"
 preserveAspectRatio="xMidYMid meet">
<metadata>
Created by potrace 1.14, written by Peter Selinger 2001-2017
</metadata>
<g transform="translate(0.000000,512.000000) scale(0.100000,-0.100000)"
fill="#000000" stroke="none">
<path d="M4620 4040 c-19 -5 -51 -11 -70 -14 -114 -17 -332 -71 -470 -116 -89
-29 -272 -104 -295 -121 -5 -4 -32 -19 -60 -34 -56 -31 -208 -139 -263 -188
-204 -180 -372 -423 -412 -595 -66 -283 101 -383 647 -384 97 -1 143 -4 143
-12 0 -6 -5 -28 -11 -50 -6 -21 -12 -46 -14 -55 -16 -78 -110 -285 -191 -419
-45 -73 -149 -227 -169 -248 -5 -7 -26 -31 -45 -55 -81 -100 -270 -269 -300
-269 -8 0 -37 55 -44 85 -2 6 -9 24 -15 40 -30 72 -87 254 -181 580 -268 929
-382 1177 -657 1435 -188 176 -413 292 -675 347 -90 19 -389 25 -483 10 -159
-25 -358 -105 -483 -194 -189 -134 -370 -372 -460 -608 -83 -215 -110 -392
-106 -680 2 -213 3 -222 34 -386 74 -395 282 -712 615 -936 172 -116 454 -225
685 -264 180 -31 460 -33 657 -5 287 41 582 143 820 282 l72 42 28 -36 c131
-174 300 -279 518 -323 73 -14 264 -19 343 -8 31 5 77 11 101 14 24 3 47 7 51
10 3 2 21 7 39 10 17 3 67 17 109 31 361 121 713 448 902 839 88 182 127 330
137 520 5 97 1 138 -21 243 -20 91 -131 214 -243 268 -123 59 -181 67 -505 66
l-288 0 0 41 c-2 138 -37 252 -97 312 -31 31 -121 81 -130 72 -2 -2 3 -21 11
-43 28 -81 43 -220 37 -353 l-1 -34 -191 6 c-105 4 -194 9 -199 12 -4 3 -25 7
-46 11 -102 16 -155 83 -148 185 17 253 195 462 542 634 126 63 222 93 324
101 156 13 191 -46 162 -271 -7 -55 -16 -120 -19 -145 -3 -25 -8 -63 -11 -85
-3 -22 -7 -53 -9 -70 -1 -16 -4 -34 -5 -40 -1 -5 -2 -13 -1 -17 2 -11 587 220
618 244 12 10 0 63 -17 73 -5 3 -44 -9 -87 -25 -92 -36 -150 -41 -170 -14 -17
23 -16 42 3 167 9 56 18 113 20 127 2 14 16 87 32 163 l29 137 -26 -1 c-14 -1
-42 -5 -61 -9z m-3235 -175 c124 -25 202 -53 300 -105 210 -111 387 -316 541
-625 33 -66 80 -169 103 -230 24 -60 47 -119 52 -130 22 -50 93 -287 178 -595
51 -184 97 -343 102 -352 5 -10 9 -24 9 -32 0 -32 98 -306 150 -421 10 -23 20
-46 22 -53 10 -39 -392 -201 -612 -247 -202 -42 -455 -50 -625 -20 -44 8 -137
26 -163 31 -62 12 -220 72 -322 121 -416 200 -702 531 -850 983 -58 174 -83
325 -84 500 -2 280 34 465 126 655 47 99 52 106 110 181 147 191 366 312 620
343 69 8 296 6 343 -4z m3090 -1290 c149 -25 250 -69 306 -134 40 -48 75 -128
85 -196 20 -133 -8 -361 -61 -501 -27 -72 -85 -187 -97 -192 -5 -2 -8 -8 -8
-13 0 -6 -19 -36 -42 -67 -209 -283 -491 -462 -783 -497 -89 -10 -221 -6 -295
9 -175 37 -294 138 -409 348 l-31 56 52 39 c66 47 208 172 269 235 236 243
437 558 522 815 18 54 35 103 39 108 6 11 379 3 453 -10z"/>
</g>
</svg>
